#!OML:ASF H:\Terrain\Patient Classification 1\PLAYGROUND\JustinFriday\JustinFriday.ASF
:FULLY-SPECIFIED
:DEGREES
2697
root 12.6979 21.4205 19.1495 -211.966 9.43607 -179.185
lowerback 12.586 -7.71174 -1.90199
upperback -6.71042 -7.3506 13.1205
thorax -12.5778 -1.76035 18.0823
lowerneck 9.89185 7.937 -46.7172
upperneck 19.0542 9.7103 10.6238
head 3.1579 3.89149 9.90846
rclavicle -6.36111e-014 -2.8625e-014
rhumerus 116.329 -8.61916 -43.8657
rradius 34.0117
rwrist -379.444
rhand -13.1273 -29.7186
rfingers 7.12502
rthumb 12.9705 -59.2954
lclavicle -6.36111e-014 -2.8625e-014
lhumerus 50.2025 40.5122 1.60578
lradius 34.8125
lwrist -3.62258
lhand 17.5899 4.60289
lfingers 7.12502
lthumb 42.2836 29.0972
rfemur 14.8625 -1.44972 18.815
rtibia 51.9407
rfoot 7.10016 -9.91118
rtoes 13.8791
lfemur 10.1719 5.17742 -6.75986
ltibia 57.9436
lfoot -169.09 173.84
ltoes -6.80005
2698
root 12.6935 21.3963 19.0366 -212.01 9.31874 -179.579
lowerback 12.5416 -7.52773 -2.62322
upperback -6.83866 -7.17812 13.5097
thorax -12.5209 -1.6717 18.3282
lowerneck 10.1583 7.98332 -47.3031
upperneck 19.3356 9.6926 10.7862
head 3.23908 3.8575 10.0393
rclavicle -6.36111e-015 5.725e-014
rhumerus 116.712 -8.99165 -43.7128
rradius 33.7651
rwrist -379.202
rhand -13.3035 -30.1351
rfingers 7.12502
rthumb 12.8007 -59.7227
lclavicle -6.36111e-015 5.725e-014
lhumerus 50.4464 40.8935 1.8029
lradius 34.3771
lwrist -3.19506
lhand 17.9105 4.28381
lfingers 7.12502
lthumb 42.5838 28.6752
rfemur 15.4962 -1.14241 18.4131
rtibia 51.1531
rfoot 7.35072 -9.5966
rtoes 14.1374
lfemur 10.5875 5.29684 -7.12397
ltibia 57.5192
lfoot -169.443 173.931
ltoes -9.205
2699
root 12.6903 21.3708 18.9314 -211.976 9.25827 -179.722
lowerback 12.5449 -7.55125 -2.40397
upperback -6.86109 -7.23415 13.1285
thorax -12.7011 -1.64263 18.4093
lowerneck 10.2901 8.17305 -47.7441
upperneck 19.4408 9.87414 10.9566
head 3.21823 3.93904 10.1315
rclavicle -3.81667e-014 2.54444e-014
rhumerus 117.491 -8.73345 -44.4997
rradius 32.9531
rwrist -378.266
rhand -13.3801 -30.2848
rfingers 7.12502
rthumb 12.7268 -59.8769
lclavicle -3.81667e-014 2.54444e-014
lhumerus 51.1619 41.5151 2.1407
lradius 34.0093
lwrist -1.33394
lhand 17.1908 6.08031
lfingers 7.12502
lthumb 41.9097 30.7006
rfemur 16.0663 -0.898221 18.3425
rtibia 50.3525
rfoot 8.51015 -8.17025
rtoes 7.50821
lfemur 10.8627 5.44772 -7.14768
ltibia 57.0517
lfoot -169.02 173.534
ltoes -8.31908
2700
root 12.682 21.3336 18.8365 -211.83 9.49962 -179.388
lowerback 12.5332 -7.60861 -1.80337
upperback -6.93714 -7.10504 13.2494
thorax -12.8942 -1.5753 18.1882
lowerneck 10.7254 8.30255 -47.9399
upperneck 19.2191 9.87159 10.7226
head 3.12981 3.96542 10.0342
rclavicle 7.95139e-014 -1.55847e-013
rhumerus 118.33 -8.24072 -45.4343
rradius 31.9465
rwrist -376.989
rhand -13.3828 -30.3035
rfingers 7.12502
rthumb 12.7242 -59.8958
lclavicle 7.95139e-014 -1.55847e-013
lhumerus 51.2047 41.6853 1.77289
lradius 33.2798
lwrist -2.33443
lhand 18.3875 4.92324
lfingers 7.12502
lthumb 43.0301 29.1585
rfemur 16.5857 -0.552131 18.9665
rtibia 49.5284
rfoot 9.64741 -6.09373
rtoes -1.32723
lfemur 11.0676 5.56957 -6.54273
ltibia 56.5449
lfoot -169.266 173.845
ltoes -14.1422
2701
root 12.6718 21.2927 18.7499 -211.774 9.66685 -179.187
lowerback 12.7063 -7.56195 -1.65716
upperback -6.99911 -6.87444 13.6988
thorax -13.0174 -1.49938 17.9666
lowerneck 10.8409 8.11604 -47.872
upperneck 19.1657 9.70099 10.2047
head 3.19885 3.8925 9.84966
rclavicle -1.65389e-013 2.19458e-013
rhumerus 119.177 -7.91853 -46.3086
rradius 31.0274
rwrist -375.726
rhand -13.3772 -30.3062
rfingers 7.12502
rthumb 12.7295 -59.8982
lclavicle -1.65389e-013 2.19458e-013
lhumerus 52.2957 42.4713 2.64742
lradius 32.5207
lwrist -1.75155
lhand 17.8182 5.91052
lfingers 7.12502
lthumb 42.4975 30.3317
rfemur 17.141 -0.0627496 19.4471
rtibia 48.6766
rfoot 9.7696 -6.04697
rtoes -0.104732
lfemur 11.3429 5.62052 -6.19278
ltibia 55.9812
lfoot -169.209 174.025
ltoes -11.777
2702
root 12.6639 21.2597 18.6655 -211.817 9.77831 -179.154
lowerback 12.7836 -7.52785 -1.16025
upperback -6.74454 -6.82626 13.2892
thorax -12.9876 -1.47937 17.8125
lowerneck 10.7652 8.00053 -48.0321
upperneck 19.1468 9.57987 10.1764
head 3.23749 3.82011 9.86718
rclavicle 3.18055e-014 -1.36764e-013
rhumerus 120.229 -7.53939 -47.6978
rradius 30.0281
rwrist -374.117
rhand -13.3838 -30.2156
rfingers 7.12502
rthumb 12.7233 -59.808
lclavicle 3.18055e-014 -1.36764e-013
lhumerus 53.6008 43.5094 3.40664
lradius 31.5817
lwrist -2.00254
lhand 17.8877 5.51866
lfingers 7.12502
lthumb 42.5625 29.9174
rfemur 17.7281 0.428138 19.7261
rtibia 47.7852
rfoot 8.68899 -8.7057
rtoes 14.1396
lfemur 11.7085 5.72978 -6.03139
ltibia 55.3869
lfoot -168.944 173.817
ltoes -13.6991
2703
root 12.6566 21.224 18.5837 -211.736 9.80057 -179.22
lowerback 13.0218 -7.48895 -1.35725
upperback -6.99859 -6.69338 13.6571
thorax -13.3093 -1.41183 17.7492
lowerneck 10.7163 8.35141 -48.6674
upperneck 20.0634 10.0412 11.1475
head 3.37869 3.97715 10.3103
rclavicle -1.11319e-013 -1.17681e-013
rhumerus 120.942 -6.68202 -48.7892
rradius 29.0331
rwrist -372.584
rhand -13.3533 -30.1647
rfingers 7.12502
rthumb 12.7526 -59.7553
lclavicle -1.11319e-013 -1.17681e-013
lhumerus 54.49 43.8872 4.01519
lradius 30.6997
lwrist -2.0684
lhand 17.9622 5.16251
lfingers 7.12502
lthumb 42.6323 29.5371
rfemur 18.1453 0.840682 19.9012
rtibia 46.8743
rfoot 10.2035 -5.94738
rtoes 1.13831
lfemur 11.8831 5.76541 -6.08746
ltibia 54.7974
lfoot -168.58 173.827
ltoes -14.81
2704
root 12.6483 21.1808 18.515 -211.456 9.80949 -179.217
lowerback 12.9743 -7.49126 -1.1837
upperback -7.17622 -6.64353 13.6209
thorax -13.528 -1.37613 17.6115
lowerneck 10.071 8.66236 -49.0986
upperneck 21.8835 10.7952 12.6504
head 3.75101 4.23004 11.0004
rclavicle 1.39944e-013 -2.44903e-013
rhumerus 121.63 -5.97565 -50.0264
rradius 28.1429
rwrist -371.051
rhand -13.3131 -30.1824
rfingers 7.12502
rthumb 12.7913 -59.7705
lclavicle 1.39944e-013 -2.44903e-013
lhumerus 55.8353 44.4441 5.01024
lradius 29.8637
lwrist -2.38889
lhand 18.0933 4.83474
lfingers 7.12502
lthumb 42.7549 29.1667
rfemur 18.3789 1.35626 20.2519
rtibia 45.9643
rfoot 10.1848 -6.06763
rtoes -0.181208
lfemur 11.7383 5.67169 -6.1607
ltibia 54.2635
lfoot -168.141 174.315
ltoes -13.7493
2705
root 12.641 21.1531 18.4547 -211.108 9.86172 -179.155
lowerback 12.7357 -7.52 -0.648382
upperback -7.10448 -6.68051 13.1841
thorax -13.5144 -1.394 17.3991
lowerneck 9.32148 8.57088 -48.8197
upperneck 23.0976 11.233 12.9535
head 4.11423 4.38707 11.1771
rclavicle 1.27222e-013 -2.03555e-013
rhumerus 122.357 -5.51868 -51.3196
rradius 27.5438
rwrist -369.598
rhand -13.3624 -30.3499
rfingers 7.12502
rthumb 12.7439 -59.941
lclavicle 1.27222e-013 -2.03555e-013
lhumerus 57.568 45.3418 6.33214
lradius 29.128
lwrist -3.01486
lhand 18.21 4.54472
lfingers 7.12502
lthumb 42.8641 28.8385
rfemur 18.5313 1.83994 20.5847
rtibia 45.0987
rfoot 8.41609 -8.94484
rtoes 13.083
lfemur 11.4819 5.61795 -6.16892
ltibia 53.7665
lfoot -167.917 174.604
ltoes -12.9854
2706
root 12.6357 21.1336 18.4023 -210.819 9.8279 -179.096
lowerback 12.599 -7.5601 -0.436284
upperback -7.10123 -6.70246 13.1646
thorax -13.449 -1.43444 17.2179
lowerneck 8.51783 8.44427 -48.6427
upperneck 24.1907 11.6823 13.0479
head 4.47244 4.55455 11.2855
rclavicle 1.11319e-013 3.18055e-015
rhumerus 122.852 -5.5699 -51.8471
rradius 27.489
rwrist -368.995
rhand -13.5071 -30.8746
rfingers 7.12502
rthumb 12.6043 -60.4744
lclavicle 1.11319e-013 3.18055e-015
lhumerus 59.173 46.2095 7.85584
lradius 28.6314
lwrist -3.72633
lhand 18.3513 4.38273
lfingers 7.12502
lthumb 42.9963 28.63
rfemur 18.6795 2.16694 20.8096
rtibia 44.3348
rfoot 7.78238 -8.73329
rtoes 12.7432
lfemur 11.2543 5.53795 -6.22504
ltibia 53.2785
lfoot -168.064 174.357
ltoes -14.6417
2707
root 12.6353 21.111 18.3626 -210.556 9.89864 -178.966
lowerback 12.7137 -7.58273 -0.341759
upperback -7.1746 -6.64835 13.2691
thorax -13.6272 -1.37124 17.3271
lowerneck 8.17018 8.66277 -49.1072
upperneck 24.9051 12.156 13.6792
head 4.5799 4.75135 11.5966
rclavicle -5.725e-014 -1.27222e-014
rhumerus 123.054 -6.25978 -51.5216
rradius 27.7735
rwrist -369.444
rhand -13.7068 -31.6654
rfingers 7.12502
rthumb 12.4118 -61.2769
lclavicle -5.725e-014 -1.27222e-014
lhumerus 60.3307 46.8239 9.05972
lradius 28.3242
lwrist -4.12029
lhand 18.5263 4.38692
lfingers 7.12502
lthumb 43.1598 28.5761
rfemur 18.7987 2.70701 21.3523
rtibia 43.7017
rfoot 6.79067 -9.08677
rtoes 12.0366
lfemur 11.0414 5.52024 -6.08445
ltibia 52.7856
lfoot -168.237 174.129
ltoes -15.0361
2708
root 12.638 21.0936 18.3308 -210.296 10.0575 -178.788
lowerback 12.7736 -7.57268 -0.413207
upperback -7.25741 -6.541 13.6911
thorax -13.6246 -1.36578 17.1832
lowerneck 8.08049 8.85836 -49.2235
upperneck 25.2673 12.4434 14.0876
head 4.59173 4.88801 11.7639
rclavicle -1.27222e-014 -1.59028e-014
rhumerus 123.196 -7.50809 -51.0158
rradius 28.1527
rwrist -370.447
rhand -13.9133 -32.5633
rfingers 7.12502
rthumb 12.2127 -62.1868
lclavicle -1.27222e-014 -1.59028e-014
lhumerus 61.144 47.3766 9.5972
lradius 28.2019
lwrist -4.05364
lhand 18.6995 4.57008
lfingers 7.12502
lthumb 43.3217 28.7013
rfemur 18.7929 3.29585 22.0018
rtibia 43.2209
rfoot 5.67641 -9.5707
rtoes 10.7627
lfemur 10.8279 5.55082 -5.81283
ltibia 52.2714
lfoot -168.297 174.195
ltoes -13.8482
